<svg viewBox="0 0 41 41" fill="none" xmlns="http://www.w3.org/2000/svg" preserveAspectRatio="xMidYMid meet">
<path d="M17.0359 6C18.5755 3.33333 22.4245 3.33333 23.9641 6L34.7894 24.75C36.329 27.4167 34.4045 30.75 31.3253 30.75H9.67468C6.59548 30.75 4.67098 27.4167 6.21058 24.75L17.0359 6Z" fill="white"/>
<path fill-rule="evenodd" clip-rule="evenodd" d="M17.0359 6C18.5755 3.33333 22.4245 3.33333 23.9641 6L34.7894 24.75C36.329 27.4167 34.4045 30.75 31.3253 30.75H9.67467C6.59547 30.75 4.67097 27.4167 6.21057 24.75L17.0359 6ZM19.156 14.44H21.621L21.383 21.75H19.377L19.156 14.44ZM21.604 23.263H19.156V26H21.604V23.263Z" fill="#7D0000"/>
</svg>
