<svg width="767" height="146" viewBox="0 0 767 146" fill="none" xmlns="http://www.w3.org/2000/svg">
<path d="M22.9439 130.35H48.0184V145.96H0V14.3195H22.9439V130.35Z" fill="black"/>
<path d="M74.7931 38.7384H96.7538V120.353H76.7598V116.256C73.3728 120.08 67.828 120.353 60.9448 120.353H57.5032C43.9554 120.353 37.5912 114.781 37.5912 100.359V38.7384H59.5518V102.981C59.5518 103.855 59.8249 104.62 60.3712 105.276C61.0268 105.931 61.7916 106.259 62.6656 106.259H71.6793C72.5534 106.259 73.2635 105.931 73.8098 105.276C74.4654 104.62 74.7931 103.855 74.7931 102.981V38.7384Z" fill="black"/>
<path d="M178.737 38.7384C192.285 38.7384 199.002 45.9493 199.002 60.3712V120.353H177.041V57.749C177.041 56.875 176.713 56.1102 176.058 55.4547C175.511 54.7991 174.801 54.4713 173.927 54.4713H166.88C166.006 54.4713 165.241 54.7991 164.586 55.4547C164.039 56.1102 163.766 56.875 163.766 57.749V120.353H141.806V57.749C141.806 56.875 141.478 56.1102 140.822 55.4547C140.276 54.7991 139.566 54.4713 138.692 54.4713H131.645C130.771 54.4713 130.006 54.7991 129.35 55.4547C128.804 56.1102 128.531 56.875 128.531 57.749V120.353H106.57V38.7384H126.564V44.4743C129.951 40.6504 135.144 38.7384 142.027 38.7384H143.502C151.587 38.7384 157.156 41.2513 160.325 46.2771C163.712 41.2513 169.396 38.7384 177.262 38.7384H178.737Z" fill="black"/>
<path d="M245.316 38.4105H248.757C262.305 38.4105 268.961 45.9493 268.961 60.3712V100.359C268.961 114.781 262.305 120.353 248.757 120.353H245.316C237.449 120.353 231.705 119.479 228.318 114.453V120.353H209.799V14.3195H231.759V42.6716C235.256 40.0494 239.853 38.4105 245.316 38.4105ZM231.759 57.749V102.981C231.759 103.855 232.033 104.62 232.579 105.276C233.234 105.931 233.999 106.259 234.873 106.259H243.887C244.761 106.259 245.471 105.931 246.017 105.276C246.673 104.62 247.001 103.855 247.001 102.981V57.749C247.001 56.875 246.673 56.1102 246.017 55.4547C245.471 54.7991 244.761 54.4713 243.887 54.4713H234.873C233.999 54.4713 233.234 54.7991 232.579 55.4547C232.033 56.1102 231.759 56.875 231.759 57.749Z" fill="black"/>
<path d="M317.61 38.4105C331.157 38.4105 337.94 45.9493 337.94 60.3712L337.931 84.5032H300.729V101.342C300.729 102.216 301.003 102.981 301.549 103.637C302.204 104.292 302.969 104.62 303.843 104.62H312.857C313.731 104.62 314.441 104.292 314.987 103.637C315.643 102.981 315.971 102.216 315.971 101.342L315.98 94.746H337.94V100.359C337.94 114.781 331.157 120.353 317.61 120.353H299.091C285.543 120.353 278.778 114.781 278.778 100.359V60.3712C278.778 45.9493 285.543 38.4105 299.091 38.4105H317.61ZM300.738 74.2604H315.98V57.0935C315.98 56.2195 315.652 55.4547 314.996 54.7991C314.45 54.1436 313.74 53.8158 312.866 53.8158H303.852C302.978 53.8158 302.213 54.1436 301.558 54.7991C301.012 55.4547 300.738 56.2195 300.738 57.0935V74.2604Z" fill="black"/>
<path d="M384.086 38.4105H388.347V60.0434H377.53C373.815 60.0434 371.958 61.9554 371.958 65.7794V120.353H349.997V38.7384H369.991V48.0798C373.16 41.8522 377.858 38.4105 384.086 38.4105Z" fill="black"/>
<path d="M398.621 122.033V38.4105H420.582V124.327C420.582 138.749 413.808 145.96 400.26 145.96H386.986V129.9H391.41C393.814 129.9 395.617 129.353 396.819 128.261C398.021 127.168 398.621 125.092 398.621 122.033Z" fill="black"/>
<path d="M471.943 38.7384H490.462V120.353H471.943V114.453C468.556 119.479 462.93 121.992 455.063 121.992H451.622C438.074 121.992 431.3 114.781 431.3 100.359V60.3712C431.3 45.9493 438.304 38.4105 451.852 38.4105H455.294C463.16 38.4105 468.556 41.2513 471.943 46.2771V38.7384ZM468.502 102.981V57.749C468.502 56.875 468.174 56.1102 467.519 55.4547C466.972 54.7991 466.262 54.4713 465.388 54.4713H456.374C455.5 54.4713 454.736 54.7991 454.08 55.4547C453.534 56.1102 453.26 56.875 453.26 57.749V102.981C453.26 103.855 453.534 104.62 454.08 105.276C454.736 105.931 455.5 106.259 456.374 106.259H465.388C466.262 106.259 466.972 105.931 467.519 105.276C468.174 104.62 468.502 103.855 468.502 102.981Z" fill="black"/>
<path d="M559.442 65.6565H537.481V57.749C537.481 56.875 537.153 56.1102 536.498 55.4547C535.951 54.7991 535.241 54.4713 534.367 54.4713H525.353C524.479 54.4713 523.715 54.7991 523.059 55.4547C522.513 56.1102 522.24 56.875 522.24 57.749V102.981C522.24 103.855 522.513 104.62 523.059 105.276C523.715 105.931 524.479 106.259 525.353 106.259H534.367C535.241 106.259 535.951 105.931 536.498 105.276C537.153 104.62 537.481 103.855 537.481 102.981V94.746H559.442V100.359C559.442 114.781 552.668 121.992 539.12 121.992H520.601C507.053 121.992 500.279 114.781 500.279 100.359V60.3712C500.279 45.9493 507.73 38.4105 521.278 38.4105H539.797C553.345 38.4105 559.442 45.9493 559.442 60.3712V65.6565Z" fill="black"/>
<path d="M631.982 38.4105L614.841 77.9069L654.337 145.96H632.377L596.814 87.0845H590.258V120.353H568.298V14.3195H590.258V69.0571H597.633L610.35 38.4105H631.982Z" fill="black"/>
<path d="M417.685 31.6911C418.65 31.6911 420.582 31.179 420.582 29.1304V16.8802C420.47 16.0266 419.733 14.3195 417.685 14.3195H401.182C400.329 14.3195 398.621 14.8316 398.621 16.8802V29.1304C398.716 29.984 400.272 31.6911 401.182 31.6911H417.685Z" fill="black"/>
<path d="M647.347 38.4105L630.205 77.907L654.84 120.353H719.047V76.8211V38.4105H647.347Z" fill="black"/>
<path d="M709.438 104.668L702.161 114.371L694.549 124.52L684.518 129.535H682.422L674.861 109.374L674.831 109.295L674.777 109.23L661.982 93.8752L654.407 83.7759V81.3819V76.5281L661.625 71.7161L666.487 74.147L666.81 74.3082L667.064 74.0533L669.609 71.5087L684.883 58.7801L692.476 56.2492L692.553 56.2235L692.618 56.1748L702.861 48.4927L702.874 48.483L702.886 48.4724L756.521 2.5H761.189L766.078 9.83351V14.4945L761.233 16.917L761.186 16.9407L761.145 16.9738L735.538 37.4595L735.53 37.4659L735.522 37.4726L676.626 88.6867L676.221 89.0385L676.6 89.4176L681.722 94.539L681.8 94.6174L681.904 94.6553L709.438 104.668Z" fill="black" stroke="black"/>
<path d="M705.438 102.668L698.161 112.371L690.549 122.52L680.518 127.535H678.422L670.861 107.374L670.831 107.295L670.777 107.23L657.982 91.8752L650.407 81.7759V79.3819V74.5281L657.625 69.7161L662.487 72.147L662.81 72.3082L663.064 72.0533L665.609 69.5087L680.883 56.7801L688.476 54.2492L688.553 54.2235L688.618 54.1748L698.861 46.4927L698.874 46.483L698.886 46.4724L752.521 0.5H757.189L762.078 7.83351V12.4945L757.233 14.917L757.186 14.9407L757.145 14.9738L731.538 35.4595L731.53 35.4659L731.522 35.4726L672.626 86.6867L672.221 87.0385L672.6 87.4176L677.722 92.539L677.8 92.6174L677.904 92.6553L705.438 102.668Z" fill="white" stroke="white"/>
</svg>
